<?xml version="1.0" encoding="iso-8859-1"?>
<!-- Uploaded to: SVG Repo, www.svgrepo.com, Generator: SVG Repo Mixer Tools -->
<svg height="800px" width="800px" version="1.1" id="Layer_1" xmlns="http://www.w3.org/2000/svg" xmlns:xlink="http://www.w3.org/1999/xlink" 
	 viewBox="0 0 511.988 511.988" xml:space="preserve">
<path style="fill:#E6E9ED;" d="M441.833,66.06c-3.75-1.75-8.172-1.172-11.359,1.484c-24.045,20.11-53.045,30.75-83.827,30.75
	c-30.482,0-60.311-10.921-83.998-30.75c-27.889-23.249-61.529-35.546-97.31-35.546c-34.78,0-68.857,12.266-96.139,34.562
	c-3.125,1.875-5.202,5.281-5.202,9.172v232.525c0,4.141,2.39,7.906,6.14,9.656c3.766,1.75,8.188,1.172,11.359-1.484
	c24.031-20.093,53.03-30.702,83.842-30.702s59.796,10.609,83.826,30.718c27.468,22.922,62.093,35.547,97.481,35.547
	c34.781,0,68.858-12.266,96.139-34.578c3.109-1.859,5.203-5.266,5.203-9.156V75.732C447.989,71.592,445.583,67.826,441.833,66.06z"
	/>
<g>
	<path style="fill:#434A54;" d="M351.991,351.898c32.906-1.188,64.921-13.312,90.795-34.484c3.109-1.859,5.203-5.266,5.203-9.156
		V75.732c0-4.141-2.406-7.906-6.156-9.672c-3.75-1.75-8.172-1.172-11.359,1.484c-22.655,18.953-49.686,29.468-78.482,30.64
		L351.991,351.898L351.991,351.898z"/>
	<path style="fill:#434A54;" d="M255.806,62.154c-26.468-19.749-57.562-30.155-90.467-30.155c-1.781,0-3.562,0.047-5.344,0.109
		v253.729c1.766-0.078,3.547-0.109,5.344-0.109c30.812,0,59.796,10.609,83.826,30.718c2.172,1.812,4.391,3.547,6.641,5.219V62.154z"
		/>
</g>
<path style="fill:#E6E9ED;" d="M69.201,66.56c-3.125,1.875-5.202,5.281-5.202,9.172v232.525c0,4.141,2.39,7.906,6.14,9.656
	c3.766,1.75,8.188,1.172,11.359-1.484c22.641-18.921,49.687-29.437,78.498-30.593l0,0V32.108
	C127.091,33.296,95.092,45.405,69.201,66.56z"/>
<path style="fill:#434A54;" d="M156.152,161.668c-32.671,0-64.779,8.938-92.153,25.405v121.185c0,4.141,2.39,7.906,6.14,9.656
	c3.766,1.75,8.188,1.172,11.359-1.484c22.641-18.921,49.687-29.437,78.498-30.593l0,0V161.715
	C158.715,161.683,157.433,161.668,156.152,161.668z"/>
<g>
	<path style="fill:#E6E9ED;" d="M255.806,321.664V191.839c-28.124-19.062-60.983-29.421-95.811-30.124v124.122
		c1.766-0.078,3.547-0.109,5.344-0.109c30.812,0,59.796,10.609,83.826,30.718C251.338,318.258,253.556,319.992,255.806,321.664z"/>
	<path style="fill:#E6E9ED;" d="M447.989,308.258V197.354c-26.452,20.016-58.311,30.609-92.154,30.609
		c-1.281,0-2.562-0.031-3.844-0.062v123.998c32.906-1.188,64.921-13.312,90.795-34.484
		C445.895,315.555,447.989,312.148,447.989,308.258z"/>
</g>
<path style="fill:#ED5564;" d="M74.654,511.988c-5.891,0-10.655-4.766-10.655-10.656V10.671C63.999,4.78,68.764,0,74.654,0
	s10.672,4.781,10.672,10.671v490.661C85.326,507.223,80.545,511.988,74.654,511.988z"/>
<path style="fill:#434A54;" d="M351.991,227.901c-32.232-0.797-63.576-11.609-88.67-30.687c-2.469-1.859-4.969-3.656-7.515-5.375
	v129.825c26.312,19.609,58.249,30.328,90.841,30.328c1.781,0,3.562-0.031,5.344-0.094V227.901z"/>
</svg>