<?xml version="1.0" encoding="UTF-8"?>
<svg xmlns="http://www.w3.org/2000/svg" xmlns:xlink="http://www.w3.org/1999/xlink" width="150px" height="150px" viewBox="0 0 150 150" version="1.1">
<g id="surface1">
<path style=" stroke:none;fill-rule:nonzero;fill:rgb(0%,0%,0%);fill-opacity:1;" d="M 46.195312 140.699219 C 43.789062 139.5 43.429688 132.421875 45.46875 126.425781 C 47.214844 121.300781 49.226562 118.59375 56.917969 111.019531 C 63.84375 104.195312 65.691406 101.945312 67.84375 97.714844 C 70.417969 92.664062 71.429688 88.667969 71.703125 82.519531 C 71.796875 80.351562 71.804688 78.578125 71.71875 78.578125 C 71.632812 78.578125 70.167969 79.425781 68.472656 80.464844 C 66.777344 81.5 62.957031 83.582031 59.984375 85.09375 C 48.707031 90.820312 46.933594 92.5 41.902344 102.261719 C 40.96875 104.074219 39.605469 106.320312 38.867188 107.257812 C 36.523438 110.246094 32.75 112.507812 30.105469 112.507812 C 28.976562 112.507812 26.90625 111.730469 25.808594 110.894531 C 25.296875 110.503906 24.640625 109.648438 24.34375 108.992188 C 23.859375 107.914062 23.675781 107.78125 22.425781 107.597656 C 13.882812 106.339844 7.824219 98.90625 8.496094 90.507812 C 8.925781 85.109375 11.355469 79.710938 17.464844 70.578125 C 21.644531 64.328125 23.347656 61.292969 24.511719 58.007812 C 25.117188 56.300781 25.1875 55.542969 25.199219 50.601562 L 25.210938 45.09375 L 26.175781 43.058594 C 26.976562 41.363281 27.824219 40.34375 31.242188 36.957031 C 33.496094 34.722656 35.730469 32.320312 36.207031 31.613281 L 37.070312 30.332031 L 36.414062 22.089844 C 35.515625 10.726562 35.511719 10.753906 37.359375 9.976562 C 38.617188 9.449219 38.554688 9.417969 48.070312 15.144531 C 52.460938 17.785156 56.15625 19.945312 56.28125 19.945312 C 56.40625 19.945312 58.757812 17.539062 61.507812 14.597656 C 65.648438 10.160156 66.679688 9.210938 67.535156 9.050781 C 69.355469 8.710938 69.78125 9.320312 73.480469 17.449219 L 76.875 24.902344 L 78.71875 24.632812 C 81.371094 24.246094 87.828125 24.585938 91.179688 25.292969 C 97.269531 26.578125 103.3125 29.195312 108.207031 32.667969 C 111.472656 34.984375 116.734375 40.304688 119.167969 43.757812 C 124.433594 51.210938 128.25 59.554688 131.746094 71.261719 C 137.75 91.363281 141.449219 114.867188 141.546875 133.550781 C 141.578125 139.433594 141.566406 139.582031 140.902344 140.246094 L 140.222656 140.929688 L 93.582031 141 C 56.78125 141.054688 46.78125 140.992188 46.195312 140.699219 Z M 46.195312 140.699219 "/>
<path style=" stroke:none;fill-rule:nonzero;fill:rgb(100%,100%,100%);fill-opacity:1;" d="M 46.367188 20.195312 C 43.730469 18.613281 41.542969 17.359375 41.492188 17.402344 C 41.449219 17.449219 41.570312 19.625 41.769531 22.242188 L 42.121094 27.003906 L 46.636719 25.035156 L 51.15625 23.070312 Z M 46.367188 20.195312 "/>
<path style=" stroke:none;fill-rule:nonzero;fill:rgb(100%,100%,100%);fill-opacity:1;" d="M 136.558594 135.554688 C 137.417969 134.699219 137.417969 134.660156 136.492188 122.921875 C 134.769531 100.992188 129.417969 75.1875 123.511719 60.273438 C 121.78125 55.90625 118.484375 49.664062 116.203125 46.433594 C 111.304688 39.503906 104.019531 33.832031 96.613281 31.167969 C 92.171875 29.574219 88.730469 29.023438 83.394531 29.050781 C 80.207031 29.066406 77.707031 29.234375 76.261719 29.535156 C 75.042969 29.789062 73.882812 29.9375 73.695312 29.867188 C 73.507812 29.792969 72.304688 27.429688 71.03125 24.617188 C 69.753906 21.800781 68.375 18.773438 67.96875 17.882812 L 67.230469 16.265625 L 62.589844 21.058594 L 57.949219 25.847656 L 49.863281 29.328125 L 41.78125 32.808594 L 39.832031 35.417969 C 38.757812 36.855469 36.535156 39.269531 34.890625 40.789062 C 30.476562 44.859375 30.570312 44.640625 30.542969 50.898438 C 30.527344 55.382812 30.429688 56.417969 29.859375 58.339844 C 28.734375 62.128906 26.222656 66.855469 21.964844 73.21875 C 17.292969 80.199219 14.863281 84.839844 14.167969 88.105469 C 13.578125 90.878906 13.753906 94.34375 14.574219 96.171875 C 16.019531 99.402344 19.582031 101.960938 23.074219 102.289062 L 24.984375 102.46875 L 26.980469 99.820312 C 28.074219 98.367188 29.265625 97.015625 29.621094 96.820312 C 31.0625 96.011719 32.617188 96.523438 33.238281 98.007812 C 33.765625 99.257812 33.503906 99.855469 30.976562 103.222656 C 29.832031 104.746094 28.9375 106.21875 28.988281 106.496094 C 29.160156 107.40625 31.011719 107.300781 32.394531 106.300781 C 34.304688 104.917969 35.582031 103.128906 38.175781 98.203125 C 39.507812 95.675781 41.175781 92.792969 41.886719 91.792969 C 44.617188 87.964844 48.734375 84.980469 57.304688 80.625 C 65.742188 76.339844 73.199219 71.582031 75.402344 69.085938 C 77.996094 66.144531 79.097656 62.710938 78.839844 58.359375 C 78.644531 55.097656 78.976562 54.125 80.445312 53.613281 C 81.191406 53.355469 81.585938 53.382812 82.367188 53.753906 C 83.613281 54.34375 83.996094 55.367188 84.203125 58.644531 C 84.519531 63.644531 82.277344 69.554688 78.675781 73.21875 L 76.699219 75.230469 L 76.9375 77.125 C 77.292969 79.953125 76.9375 86.378906 76.253906 89.441406 C 74.902344 95.476562 72.363281 101.222656 69.039062 105.761719 C 68.054688 107.109375 64.375 111.042969 60.78125 114.589844 C 54.375 120.917969 52.519531 123.160156 51.066406 126.34375 C 50.136719 128.367188 49.480469 131.480469 49.46875 133.859375 L 49.46875 135.71875 L 91.5625 135.71875 C 119.304688 135.71875 133.71875 135.820312 133.84375 136.019531 C 134.203125 136.601562 135.785156 136.332031 136.558594 135.554688 Z M 136.558594 135.554688 "/>
<path style=" stroke:none;fill-rule:nonzero;fill:rgb(0%,0%,0%);fill-opacity:1;" d="M 34.308594 56.804688 C 35.65625 54.269531 39.539062 48.023438 40.328125 47.125 C 41.929688 45.296875 44.417969 44.515625 46.320312 45.238281 C 46.742188 45.394531 47.085938 45.699219 47.085938 45.914062 C 47.085938 46.839844 44.671875 50.335938 42.613281 52.390625 C 40.914062 54.085938 39.765625 54.925781 37.851562 55.871094 C 36.464844 56.554688 35.015625 57.207031 34.632812 57.308594 C 33.984375 57.492188 33.960938 57.457031 34.308594 56.804688 Z M 34.308594 56.804688 "/>
<path style=" stroke:none;fill-rule:nonzero;fill:rgb(0%,0%,0%);fill-opacity:1;" d="M 15.894531 93.269531 C 16.007812 90.910156 16.195312 89.953125 16.808594 88.613281 C 17.621094 86.839844 18.945312 85.722656 20.238281 85.71875 C 21.914062 85.71875 23.574219 87.394531 23.574219 89.082031 C 23.574219 90.367188 22.289062 91.746094 18.992188 94.011719 L 15.75 96.238281 Z M 15.894531 93.269531 "/>
</g>
</svg>
